HIERARCHY
ROOT Hips
{
	OFFSET 0.00000 0.00000 0.00000
	CHANNELS 6 Xposition Yposition Zposition Zrotation Yrotation Xrotation 
	JOINT LHipJoint
	{
		OFFSET 0 0 0
		CHANNELS 3 Zrotation Yrotation Xrotation
		JOINT LeftHip
		{
			OFFSET 1.66553 -1.82942 0.76350
			CHANNELS 3 Zrotation Yrotation Xrotation
			JOINT LeftKnee
			{
				OFFSET 2.41740 -6.64177 0.00000
				CHANNELS 3 Zrotation Yrotation Xrotation
				JOINT LeftAnkle
				{
					OFFSET 2.71614 -7.46254 0.00000
					CHANNELS 3 Zrotation Yrotation Xrotation
					JOINT LeftToe
					{
						OFFSET 0.08005 -0.21993 1.82495
						CHANNELS 3 Zrotation Yrotation Xrotation
						End Site
						{
							OFFSET 0.00000 -0.00000 0.93441
						}
					}
				}
			}
		}
	}
	JOINT RHipJoint
	{
		OFFSET 0 0 0
		CHANNELS 3 Zrotation Yrotation Xrotation
		JOINT RightHip
		{
			OFFSET -1.63725 -1.82942 0.76350
			CHANNELS 3 Zrotation Yrotation Xrotation
			JOINT RightKnee
			{
				OFFSET -2.40538 -6.60872 0.00000
				CHANNELS 3 Zrotation Yrotation Xrotation
				JOINT RightAnkle
				{
					OFFSET -2.73312 -7.50919 0.00000
					CHANNELS 3 Zrotation Yrotation Xrotation
					JOINT RightToe
					{
						OFFSET -0.15567 -0.42769 1.93504
						CHANNELS 3 Zrotation Yrotation Xrotation
						End Site
						{
							OFFSET -0.00000 -0.00000 1.00100
						}
					}
				}
			}
		}
	}
	JOINT lowerback
	{
		OFFSET 0 0 0
		CHANNELS 3 Zrotation Yrotation Xrotation
		JOINT Chest
		{
			OFFSET 0.00326 2.30118 -0.13017
			CHANNELS 3 Zrotation Yrotation Xrotation
			JOINT Chest2
			{
				OFFSET 0.02887 2.30677 0.00834
				CHANNELS 3 Zrotation Yrotation Xrotation
				JOINT lowerneck
				{
					OFFSET 0 0 0
					CHANNELS 3 Zrotation Yrotation Xrotation
					JOINT Neck
					{
						OFFSET 0.12946 1.68326 0.00713
						CHANNELS 3 Zrotation Yrotation Xrotation
						JOINT Head
						{
							OFFSET -0.24364 1.67243 -0.16079
							CHANNELS 3 Zrotation Yrotation Xrotation
							End Site
							{
								OFFSET -0.09229 1.70819 -0.06383
							}
						}
					}
				}
				JOINT LeftCollar
				{
					OFFSET 0 0 0
					CHANNELS 3 Zrotation Yrotation Xrotation
					JOINT LeftShoulder
					{
						OFFSET 3.28104 0.69567 -0.00556
CHANNELS 3 Zrotation Xrotation Yrotation
						JOINT LeftElbow
						{
OFFSET 0 -5.707060 -0.000000
CHANNELS 3 Zrotation Xrotation Yrotation
							JOINT LeftWrist
							{
OFFSET 0 -3.332430 0.000000
CHANNELS 3 Zrotation Xrotation Yrotation
								JOINT lhand
								{
									OFFSET 0 0 0
CHANNELS 3 Zrotation Xrotation Yrotation
									JOINT LFingers
									{
OFFSET 0 -0.792690 0.000000
CHANNELS 3 Zrotation Xrotation Yrotation
										End Site
										{
OFFSET 0 -0.639090 0.000000
										}
									}
								}
								JOINT LThumb
								{
OFFSET 0 0.000000 0.000000
CHANNELS 3 Zrotation Xrotation Yrotation
									End Site
									{
OFFSET 0 -0.648840 0.648840
									}
								}
							}
						}
					}
				}
				JOINT RightCollar
				{
					OFFSET 0 0 0
					CHANNELS 3 Zrotation Yrotation Xrotation
					JOINT RightShoulder
					{
						OFFSET -3.40955 0.64424 0.14010
CHANNELS 3 Zrotation Xrotation Yrotation
						JOINT RightElbow
						{
OFFSET 0 -5.881760 -0.000000
CHANNELS 3 Zrotation Xrotation Yrotation
							JOINT RightWrist
							{
OFFSET 0 -3.281560 0.000000
CHANNELS 3 Zrotation Xrotation Yrotation
								JOINT rhand
								{
									OFFSET 0 0 0
CHANNELS 3 Zrotation Xrotation Yrotation
									JOINT RFingers
									{
OFFSET 0 -0.863130 0.000000
CHANNELS 3 Zrotation Xrotation Yrotation
										End Site
										{
OFFSET 0 -0.695870 0.000000
										}
									}
								}
								JOINT RThumb
								{
OFFSET 0 0.000000 0.000000
CHANNELS 3 Zrotation Xrotation Yrotation
									End Site
									{
OFFSET 0 -0.706500 0.706500
									}
								}
							}
						}
					}
				}
			}
		}
	}
}
MOTION
Frames: 11
Frame Time: 0.008333333333333333
5.080901 17.260382 3.725895 -2.577004 20.340215 4.745191 0.000000 0.000000 0.000000 -10.479439 -10.532245 -21.368020 5.081192 13.474422 41.171880 1.499578 -7.503883 -21.912527 2.879626 -10.497341 -30.602939 0.000000 0.000000 0.000000 5.752695 3.434356 -0.771830 -3.833915 -11.935142 35.504054 -0.113254 -6.830497 -12.109786 -0.005030 -0.316240 0.869084 2.489638 0.134338 6.200802 6.098617 0.807689 -2.819344 4.926066 0.454591 -6.509867 18.682906 11.989383 11.612597 -27.682032 15.003663 -27.368430 -13.709736 8.646069 -5.980868 0.000000 0.000000 0.000000 69.013041 -29.925501 30.871454 125.665661 -54.600110 90.327204 42.025729 -57.426070 -21.866794 0.000000 0.000000 0.000000 -7.125000 0.000000 0.000000 15.213487 57.706945 -4.806415 0.000000 0.000000 0.000000 -22.965034 -19.538115 13.904001 -139.161713 -48.558205 -100.934592 -22.413347 -31.314567 -0.046246 0.000000 0.000000 0.000000 7.125000 0.000000 0.000000 3.269480 29.923349 1.208111
5.872240 17.537007 4.121985 -2.258689 22.723832 5.252486 0.000000 0.000000 0.000000 -13.651784 -9.356113 -17.916652 4.125488 12.325479 36.893451 1.085276 -8.970863 -18.720795 2.895802 -10.523507 -30.690261 0.000000 0.000000 0.000000 10.102096 5.947589 -8.007206 -4.816489 -13.174005 40.023450 -0.836018 -1.804464 -18.012314 -0.131491 2.337465 -6.439219 1.036425 -1.180752 6.112460 6.459387 -1.072119 -2.784264 6.359308 -0.408214 -6.259016 19.038456 11.999926 12.697069 -28.205397 15.270885 -26.310882 -13.927885 8.865660 -5.687960 0.000000 0.000000 0.000000 67.945342 -33.982750 29.303117 119.466196 -56.450065 85.214297 41.619835 -55.182085 -22.128932 0.000000 0.000000 0.000000 -7.125000 0.000000 0.000000 14.728779 57.912568 -4.722087 0.000000 0.000000 0.000000 -21.795816 -13.158235 13.771845 -143.476478 -45.869715 -104.102862 -15.254019 -30.778928 0.230242 0.000000 0.000000 0.000000 7.125000 0.000000 0.000000 8.911968 30.154986 3.264404
6.659487 17.856831 4.587893 -1.432342 23.902047 5.667520 0.000000 0.000000 0.000000 -16.808828 -4.911298 -16.028431 3.683679 11.727157 34.773359 0.238110 -12.400422 -11.589948 1.788954 -8.409403 -23.966097 0.000000 0.000000 0.000000 14.225755 10.098496 -15.121747 -4.904592 -13.275406 40.408500 -1.387664 0.838429 -22.023077 -0.121346 2.245837 -6.185511 0.277804 -2.512217 5.237077 7.103488 -2.938806 -2.616947 7.624326 -1.316179 -5.320739 19.392930 12.614758 13.830301 -29.079269 16.387663 -25.302697 -14.182455 9.549357 -5.148875 0.000000 0.000000 0.000000 60.644235 -35.457854 24.442144 113.079107 -57.888464 79.845380 41.278330 -52.616652 -23.010870 0.000000 0.000000 0.000000 -7.125000 0.000000 0.000000 14.367222 58.872198 -4.938530 0.000000 0.000000 0.000000 -21.889645 -10.470833 16.704833 -146.096324 -44.012721 -105.953701 -13.385907 -29.142210 -0.169778 0.000000 0.000000 0.000000 7.125000 0.000000 0.000000 10.329278 29.725189 3.905758
7.523949 18.146520 5.102639 0.338975 23.211171 4.636642 0.000000 0.000000 0.000000 -19.585324 -0.663242 -15.504466 4.450045 12.734747 38.386069 -0.579428 -13.923748 0.987567 2.540997 -9.908785 -28.684672 0.000000 0.000000 0.000000 16.991776 11.849577 -20.180109 -4.055217 -12.232954 36.561850 -1.334882 8.627460 -20.710830 -0.458886 4.344116 -12.047120 0.740840 -3.102323 4.966968 7.469874 -3.714380 -2.189452 7.773967 -1.734219 -4.623977 19.539120 13.238857 13.838263 -29.436000 17.613951 -22.394073 -13.847847 10.196728 -3.918139 0.000000 0.000000 0.000000 44.630096 -32.829476 13.338146 115.070488 -57.484943 81.528181 45.616926 -47.398297 -27.753026 0.000000 0.000000 0.000000 -7.125000 0.000000 0.000000 21.386965 65.739861 -10.940013 0.000000 0.000000 0.000000 -21.538645 -10.917210 23.157702 -147.956954 -42.581487 -107.230069 -16.982902 -27.277273 -1.874130 0.000000 0.000000 0.000000 7.125000 0.000000 0.000000 7.404003 27.994082 3.087655
8.387486 18.151877 5.693614 1.865211 22.610545 1.688132 0.000000 0.000000 0.000000 -18.805306 1.336685 -17.706054 7.208764 15.503155 49.656102 -0.679594 -15.522344 11.948008 3.236807 -11.063321 -32.500107 0.000000 0.000000 0.000000 19.977168 10.451796 -20.652602 -3.287717 -11.146861 32.776786 0.433702 16.461452 -6.465075 -0.119116 2.205905 -6.075899 1.615837 -2.905524 5.087407 7.350297 -3.432037 -1.418555 7.084002 -1.638342 -3.977414 20.140987 13.063330 13.452258 -28.744343 17.898453 -19.379351 -13.326903 10.200606 -2.953670 0.000000 0.000000 0.000000 26.651998 -27.933248 -0.058285 120.124765 -56.275873 85.762534 46.746986 -47.162653 -29.108508 0.000000 0.000000 0.000000 -7.125000 0.000000 0.000000 23.755841 67.662374 -13.238610 0.000000 0.000000 0.000000 -20.109370 -12.381778 30.276328 -146.834220 -43.456688 -106.463891 -20.887080 -25.052930 -6.561230 0.000000 0.000000 0.000000 7.125000 0.000000 0.000000 4.315468 22.966243 2.294601
9.179324 17.685580 6.318993 4.962242 23.053920 -1.498344 0.000000 0.000000 0.000000 -17.013620 0.563095 -19.154598 10.412484 17.635105 60.857941 -0.243035 -9.375839 -0.275813 2.150633 -9.171862 -26.335323 0.000000 0.000000 0.000000 19.666891 11.803582 -15.240454 -4.506986 -12.805810 38.646223 -0.667145 9.614819 -15.067948 -0.001158 -0.209722 0.576283 0.476917 -2.488413 5.783594 6.216459 -2.990242 -1.184416 6.512575 -1.406707 -4.171123 21.042759 12.182983 14.273344 -28.429333 17.230022 -17.772472 -13.407265 9.818584 -2.770263 0.000000 0.000000 0.000000 14.123121 -20.732263 -9.697425 128.031021 -53.757990 92.245147 47.782533 -45.533127 -32.142084 0.000000 0.000000 0.000000 -7.125000 0.000000 0.000000 27.099366 71.419595 -17.439521 0.000000 0.000000 0.000000 -18.238615 -13.669259 36.737423 -143.771584 -45.669411 -104.314269 -24.895656 -23.148360 -7.059529 0.000000 0.000000 0.000000 7.125000 0.000000 0.000000 1.379969 22.206280 0.756302
9.941379 17.022310 6.871025 4.103299 22.108880 -5.307475 0.000000 0.000000 0.000000 -9.903371 -0.884006 -21.219509 11.499378 18.170809 64.392765 0.439185 -3.932502 -11.785747 1.035349 -6.465996 -18.144660 0.000000 0.000000 0.000000 21.175194 15.413556 -10.681135 -6.381458 -14.786657 46.491569 -2.122547 6.587432 -26.268878 -0.002191 -0.050673 0.139190 3.003311 -2.229984 7.309190 6.530962 -2.318108 -1.157123 5.436429 -1.114847 -5.171695 20.393770 11.844081 15.464357 -29.504113 16.586402 -18.932979 -14.020821 9.702951 -3.407306 0.000000 0.000000 0.000000 7.702367 -12.159268 -12.360078 139.109112 -48.584882 100.894022 45.899599 -47.100006 -33.648862 0.000000 0.000000 0.000000 -7.125000 0.000000 0.000000 23.610201 72.513974 -15.670442 0.000000 0.000000 0.000000 -16.971429 -16.173472 42.371011 -136.576574 -49.966513 -98.973785 -22.946612 -20.195476 -8.105247 0.000000 0.000000 0.000000 7.125000 0.000000 0.000000 2.829187 21.191087 1.613288
10.658676 16.601252 7.370052 3.892140 22.144034 -6.997820 0.000000 0.000000 0.000000 -4.787753 -5.846606 -20.384074 8.748018 16.639931 55.210254 0.625372 -0.605248 -14.747058 2.510702 -9.856053 -28.512891 0.000000 0.000000 0.000000 21.924800 17.286845 -7.892676 -8.131981 -16.215395 53.036516 -3.042207 2.196206 -32.494142 -0.100607 2.043489 -5.625884 3.661841 -2.631222 6.890706 7.151405 -2.803218 -0.948327 5.747739 -1.364640 -4.685644 20.371616 12.316229 15.171399 -30.149408 16.948244 -20.612188 -14.322760 9.929468 -3.647641 0.000000 0.000000 0.000000 7.813283 -7.720436 -10.303971 144.870462 -44.903641 105.095054 43.141683 -49.013499 -33.240855 0.000000 0.000000 0.000000 -7.125000 0.000000 0.000000 17.850088 71.194868 -11.254629 0.000000 0.000000 0.000000 -15.872126 -15.979727 45.739568 -129.110084 -53.346695 -93.113120 -16.268736 -18.086037 -5.136560 0.000000 0.000000 0.000000 7.125000 0.000000 0.000000 7.771424 24.627456 3.852091
11.481900 16.623089 7.798648 5.464439 22.280009 -6.189134 0.000000 0.000000 0.000000 -4.223412 -9.858431 -16.602905 4.516588 12.815818 38.686070 0.427402 1.829092 -13.150262 2.488651 -9.817288 -28.387079 0.000000 0.000000 0.000000 18.455898 15.908009 -4.664579 -7.796231 -15.967218 51.825124 -3.493215 3.364347 -34.646432 -0.062346 1.610041 -4.429152 3.471439 -2.777833 5.569257 7.407693 -3.021631 -2.055770 6.127783 -1.455505 -5.063382 20.323843 12.485344 15.254547 -30.343240 17.138901 -21.098014 -14.417227 10.042429 -3.727648 0.000000 0.000000 0.000000 11.537585 -6.158248 -4.584866 145.672168 -44.326160 105.658294 39.965429 -53.225643 -34.121693 0.000000 0.000000 0.000000 -7.125000 0.000000 0.000000 11.812403 71.145877 -7.393813 0.000000 0.000000 0.000000 -15.510474 -9.814351 45.701720 -125.653661 -54.604780 -90.317582 -6.941615 -15.265301 0.283418 0.000000 0.000000 0.000000 7.125000 0.000000 0.000000 15.367618 30.063574 5.790081
12.409348 16.944212 8.213143 6.680345 20.124025 -5.323330 0.000000 0.000000 0.000000 -4.952955 -11.703935 -10.066111 1.627093 8.036987 22.829049 0.019166 -0.070066 -2.494662 1.995405 -8.855075 -25.343907 0.000000 0.000000 0.000000 14.715841 14.952069 0.966661 -5.893824 -14.323536 44.551883 -3.325827 4.953102 -33.475854 -0.192354 2.819175 -7.775992 3.455685 -2.585402 3.732918 7.924570 -2.826934 -2.848448 6.602636 -1.346804 -4.842885 20.402023 13.066813 15.634771 -30.710023 17.989638 -21.581936 -14.533042 10.507358 -3.641856 0.000000 0.000000 0.000000 16.010676 -5.405554 2.102039 143.554110 -45.817127 104.158441 40.642571 -53.008636 -32.354358 0.000000 0.000000 0.000000 -7.125000 0.000000 0.000000 13.329480 69.415310 -7.840621 0.000000 0.000000 0.000000 -15.924551 -3.256843 45.027750 -127.054330 -54.116318 -91.455860 -4.318793 -14.531505 0.422051 0.000000 0.000000 0.000000 7.125000 0.000000 0.000000 17.394892 30.132406 6.587480
13.289857 17.315914 8.520814 6.160154 17.106901 -3.585397 0.000000 0.000000 0.000000 -4.530553 -12.755473 -7.028107 0.770801 5.605933 15.645227 0.134282 3.551204 6.601778 0.671560 -5.225721 -14.556772 0.000000 0.000000 0.000000 12.438027 14.927320 4.360093 -4.096750 -12.286954 36.756398 -2.581804 4.947580 -29.306911 -0.484446 4.462238 -12.381090 3.472316 -2.556009 1.778341 8.889993 -2.831618 -3.786948 7.576627 -1.325272 -4.677378 20.676784 13.872750 16.305522 -30.465943 19.218761 -22.710199 -14.492691 11.081056 -3.751307 0.000000 0.000000 0.000000 20.488478 -4.032514 7.737367 140.881861 -47.538587 102.214077 42.540271 -53.183283 -31.635878 0.000000 0.000000 0.000000 -7.125000 0.000000 0.000000 16.683849 69.213913 -9.774784 0.000000 0.000000 0.000000 -16.890089 1.219538 43.537937 -129.557447 -53.171585 -93.471817 -3.772161 -16.913587 -0.944944 0.000000 0.000000 0.000000 7.125000 0.000000 0.000000 17.575304 28.812202 7.244772
